<svg xmlns="http://www.w3.org/2000/svg" width="128" height="128" viewBox="0 0 128 128">
  <defs>
    <linearGradient id="bg" x1="0" y1="0" x2="1" y2="1">
      <stop offset="0" stop-color="#071a2a"/>
      <stop offset="1" stop-color="#0b2a3b"/>
    </linearGradient>
    <linearGradient id="accent" x1="0" y1="1" x2="1" y2="0">
      <stop offset="0" stop-color="#22c55e"/>
      <stop offset="1" stop-color="#60a5fa"/>
    </linearGradient>
  </defs>
  <rect x="8" y="8" width="112" height="112" rx="24" fill="url(#bg)"/>
  <circle cx="64" cy="66" r="32" fill="none" stroke="url(#accent)" stroke-width="8" opacity="0.95"/>
  <path d="M82 42l-10 6 6 10" fill="none" stroke="#93c5fd" stroke-width="7" stroke-linecap="round" stroke-linejoin="round"/>
  <path d="M46 90l10-6-6-10" fill="none" stroke="#34d399" stroke-width="7" stroke-linecap="round" stroke-linejoin="round"/>
  <path d="M36 80c-6-13-4-29 6-40" fill="none" stroke="#34d399" stroke-width="7" stroke-linecap="round"/>
  <path d="M92 52c6 13 4 29-6 40" fill="none" stroke="#93c5fd" stroke-width="7" stroke-linecap="round"/>
  <path d="M34 78c6-10 15-16 26-17l18-2c7-1 14-4 19-9l7-7c4-4 9-6 15-6h2" fill="none" stroke="#e5f0ff" stroke-width="4" stroke-linecap="round" opacity="0.85"/>
  <path d="M52 79a10 10 0 1 0 0 0.01" fill="none" stroke="#e5f0ff" stroke-width="4" opacity="0.85"/>
  <path d="M82 79a10 10 0 1 0 0 0.01" fill="none" stroke="#e5f0ff" stroke-width="4" opacity="0.85"/>
</svg>

