<svg xmlns="http://www.w3.org/2000/svg" width="1920" height="1080" viewBox="0 0 1920 1080">
  <defs>
    <linearGradient id="g0" x1="0" y1="0" x2="1" y2="1">
      <stop offset="0" stop-color="#071a2a"/>
      <stop offset="0.55" stop-color="#0b2a3b"/>
      <stop offset="1" stop-color="#0a2133"/>
    </linearGradient>
    <linearGradient id="g1" x1="0" y1="1" x2="1" y2="0">
      <stop offset="0" stop-color="#14b8a6" stop-opacity="0.18"/>
      <stop offset="1" stop-color="#60a5fa" stop-opacity="0.10"/>
    </linearGradient>
    <pattern id="grid" width="64" height="64" patternUnits="userSpaceOnUse">
      <path d="M64 0H0V64" fill="none" stroke="#8fb3ff" stroke-opacity="0.10" stroke-width="1"/>
      <path d="M0 0H64M0 0V64" fill="none" stroke="#8fb3ff" stroke-opacity="0.05" stroke-width="1"/>
    </pattern>
    <filter id="soft" x="-30%" y="-30%" width="160%" height="160%">
      <feGaussianBlur stdDeviation="18" result="b"/>
      <feColorMatrix in="b" type="matrix"
        values="1 0 0 0 0
                0 1 0 0 0
                0 0 1 0 0
                0 0 0 0.85 0" />
    </filter>
  </defs>

  <rect width="1920" height="1080" fill="url(#g0)"/>
  <rect width="1920" height="1080" fill="url(#grid)"/>
  <rect width="1920" height="1080" fill="url(#g1)"/>

  <g opacity="0.22" filter="url(#soft)">
    <circle cx="340" cy="250" r="220" fill="#22c55e"/>
    <circle cx="1620" cy="220" r="260" fill="#60a5fa"/>
    <circle cx="1520" cy="920" r="280" fill="#14b8a6"/>
  </g>

  <g opacity="0.18" stroke="#c7ddff" stroke-width="3" fill="none">
    <path d="M340 760c70-86 168-140 286-156l180-20c62-8 125-38 169-81l76-74c22-22 53-34 84-34h195c35 0 68 14 92 39l84 86c23 24 55 38 89 40l131 8c66 4 126 36 165 87l57 74c18 24 28 53 28 83v82H340z" opacity="0.65"/>
    <path d="M508 760c0-70 57-127 127-127s127 57 127 127" opacity="0.65"/>
    <path d="M1186 760c0-70 57-127 127-127s127 57 127 127" opacity="0.65"/>
    <path d="M660 475h340" opacity="0.45"/>
    <path d="M1020 475h210" opacity="0.45"/>
  </g>

  <g transform="translate(240 180)" opacity="0.22">
    <path d="M170 78c34-18 78-5 96 29l22 40c18 34 5 78-29 96l-41 22c-34 18-78 5-96-29l-22-40c-18-34-5-78 29-96l41-22z" fill="none" stroke="#60a5fa" stroke-width="6"/>
    <path d="M247 90l-34 19 15 27" fill="none" stroke="#60a5fa" stroke-width="8" stroke-linecap="round" stroke-linejoin="round"/>
    <path d="M133 212l34-19-15-27" fill="none" stroke="#60a5fa" stroke-width="8" stroke-linecap="round" stroke-linejoin="round"/>
  </g>

  <g transform="translate(1440 700)" opacity="0.18" stroke="#34d399" stroke-width="6" fill="none">
    <path d="M180 56c-19-33-61-45-94-26l-34 19"/>
    <path d="M54 49l10-32 28 18" stroke-linecap="round" stroke-linejoin="round"/>
    <path d="M28 196c19 33 61 45 94 26l34-19"/>
    <path d="M186 203l-10 32-28-18" stroke-linecap="round" stroke-linejoin="round"/>
    <path d="M52 48c-38 37-49 96-24 146"/>
    <path d="M186 203c38-37 49-96 24-146"/>
  </g>

  <g opacity="0.20" stroke="#93c5fd" stroke-width="3" fill="none">
    <path d="M118 380h210" opacity="0.35"/>
    <path d="M155 420h260" opacity="0.25"/>
    <path d="M1540 360h240" opacity="0.35"/>
    <path d="M1500 400h300" opacity="0.25"/>
  </g>
</svg>

